<svg xmlns="http://www.w3.org/2000/svg" viewBox="0 0 822 266" width="822" height="266" role="img" aria-label="WikiForge — Scaffold an LLM Wiki, ready to run">
  <rect x="0" y="0" width="822" height="266" rx="14" fill="#0d1117"/>
  <rect x="20" y="20" width="782" height="226" rx="12" fill="none" stroke="#22d3ee" stroke-width="3"/>
  <rect x="38" y="11" width="56" height="18" fill="#0d1117"/>
  <text x="43" y="24" font-family="ui-monospace, SFMono-Regular, Menlo, Consolas, monospace" font-size="12" fill="#22d3ee" font-weight="500">v0.1.0</text>
  <g>
    <rect x="48" y="56" width="11" height="20" fill="#22d3ee"/>
    <rect x="59" y="56" width="11" height="20" fill="#22d3ee"/>
    <rect x="70" y="64.9" width="6.599999999999994" height="2.2" fill="#22d3ee"/><rect x="74.4" y="64.9" width="2.2" height="11.099999999999994" fill="#22d3ee"/>
    <rect x="125" y="56" width="11" height="20" fill="#22d3ee"/>
    <rect x="136" y="56" width="11" height="20" fill="#22d3ee"/>
    <rect x="147" y="64.9" width="6.599999999999994" height="2.2" fill="#22d3ee"/><rect x="151.4" y="64.9" width="2.2" height="11.099999999999994" fill="#22d3ee"/>
    <rect x="158" y="56" width="11" height="20" fill="#22d3ee"/>
    <rect x="169" y="56" width="11" height="20" fill="#22d3ee"/>
    <rect x="180" y="64.9" width="6.599999999999994" height="2.2" fill="#22d3ee"/><rect x="184.4" y="64.9" width="2.2" height="11.099999999999994" fill="#22d3ee"/>
    <rect x="191" y="56" width="11" height="20" fill="#22d3ee"/>
    <rect x="202" y="56" width="11" height="20" fill="#22d3ee"/>
    <rect x="213" y="64.9" width="6.599999999999994" height="2.2" fill="#22d3ee"/><rect x="217.4" y="64.9" width="2.2" height="11.099999999999994" fill="#22d3ee"/>
    <rect x="246" y="56" width="11" height="20" fill="#22d3ee"/>
    <rect x="257" y="56" width="11" height="20" fill="#22d3ee"/>
    <rect x="268" y="64.9" width="6.600000000000023" height="2.2" fill="#22d3ee"/><rect x="272.4" y="64.9" width="2.2" height="11.099999999999994" fill="#22d3ee"/>
    <rect x="279" y="56" width="11" height="20" fill="#22d3ee"/>
    <rect x="290" y="56" width="11" height="20" fill="#22d3ee"/>
    <rect x="301" y="64.9" width="6.600000000000023" height="2.2" fill="#22d3ee"/><rect x="305.4" y="64.9" width="2.2" height="11.099999999999994" fill="#22d3ee"/>
    <rect x="312" y="56" width="11" height="20" fill="#22d3ee"/>
    <rect x="323" y="56" width="11" height="20" fill="#22d3ee"/>
    <rect x="334" y="56" width="11" height="20" fill="#22d3ee"/>
    <rect x="345" y="56" width="11" height="20" fill="#22d3ee"/>
    <rect x="356" y="56" width="11" height="20" fill="#22d3ee"/>
    <rect x="367" y="56" width="11" height="20" fill="#22d3ee"/>
    <rect x="378" y="56" width="11" height="20" fill="#22d3ee"/>
    <rect x="389" y="64.9" width="6.600000000000023" height="2.2" fill="#22d3ee"/><rect x="393.4" y="64.9" width="2.2" height="11.099999999999994" fill="#22d3ee"/>
    <rect x="411" y="56" width="11" height="20" fill="#22d3ee"/>
    <rect x="422" y="56" width="11" height="20" fill="#22d3ee"/>
    <rect x="433" y="56" width="11" height="20" fill="#22d3ee"/>
    <rect x="444" y="56" width="11" height="20" fill="#22d3ee"/>
    <rect x="455" y="56" width="11" height="20" fill="#22d3ee"/>
    <rect x="466" y="56" width="11" height="20" fill="#22d3ee"/>
    <rect x="477" y="64.9" width="6.600000000000023" height="2.2" fill="#22d3ee"/><rect x="481.4" y="64.9" width="2.2" height="11.099999999999994" fill="#22d3ee"/>
    <rect x="499" y="56" width="11" height="20" fill="#22d3ee"/>
    <rect x="510" y="56" width="11" height="20" fill="#22d3ee"/>
    <rect x="521" y="56" width="11" height="20" fill="#22d3ee"/>
    <rect x="532" y="56" width="11" height="20" fill="#22d3ee"/>
    <rect x="543" y="56" width="11" height="20" fill="#22d3ee"/>
    <rect x="554" y="56" width="11" height="20" fill="#22d3ee"/>
    <rect x="565" y="64.9" width="6.600000000000023" height="2.2" fill="#22d3ee"/><rect x="569.4" y="64.9" width="2.2" height="11.099999999999994" fill="#22d3ee"/>
    <rect x="598" y="56" width="11" height="20" fill="#22d3ee"/>
    <rect x="609" y="56" width="11" height="20" fill="#22d3ee"/>
    <rect x="620" y="56" width="11" height="20" fill="#22d3ee"/>
    <rect x="631" y="56" width="11" height="20" fill="#22d3ee"/>
    <rect x="642" y="56" width="11" height="20" fill="#22d3ee"/>
    <rect x="653" y="56" width="11" height="20" fill="#22d3ee"/>
    <rect x="664" y="64.9" width="6.600000000000023" height="2.2" fill="#22d3ee"/><rect x="668.4" y="64.9" width="2.2" height="11.099999999999994" fill="#22d3ee"/>
    <rect x="686" y="56" width="11" height="20" fill="#22d3ee"/>
    <rect x="697" y="56" width="11" height="20" fill="#22d3ee"/>
    <rect x="708" y="56" width="11" height="20" fill="#22d3ee"/>
    <rect x="719" y="56" width="11" height="20" fill="#22d3ee"/>
    <rect x="730" y="56" width="11" height="20" fill="#22d3ee"/>
    <rect x="741" y="56" width="11" height="20" fill="#22d3ee"/>
    <rect x="752" y="56" width="11" height="20" fill="#22d3ee"/>
    <rect x="763" y="64.9" width="6.600000000000023" height="2.2" fill="#22d3ee"/><rect x="767.4" y="64.9" width="2.2" height="11.099999999999994" fill="#22d3ee"/>
    <rect x="48" y="76" width="11" height="20" fill="#22d3ee"/>
    <rect x="59" y="76" width="11" height="20" fill="#22d3ee"/>
    <rect x="74.4" y="76" width="2.2" height="20" fill="#22d3ee"/>
    <rect x="125" y="76" width="11" height="20" fill="#22d3ee"/>
    <rect x="136" y="76" width="11" height="20" fill="#22d3ee"/>
    <rect x="151.4" y="76" width="2.2" height="20" fill="#22d3ee"/>
    <rect x="158" y="76" width="11" height="20" fill="#22d3ee"/>
    <rect x="169" y="76" width="11" height="20" fill="#22d3ee"/>
    <rect x="184.4" y="76" width="2.2" height="20" fill="#22d3ee"/>
    <rect x="191" y="76" width="11" height="20" fill="#22d3ee"/>
    <rect x="202" y="76" width="11" height="20" fill="#22d3ee"/>
    <rect x="217.4" y="76" width="2.2" height="20" fill="#22d3ee"/>
    <rect x="235" y="76" width="11" height="20" fill="#22d3ee"/>
    <rect x="246" y="76" width="11" height="20" fill="#22d3ee"/>
    <rect x="261.4" y="84.9" width="6.600000000000023" height="2.2" fill="#22d3ee"/><rect x="261.4" y="84.9" width="2.2" height="11.099999999999994" fill="#22d3ee"/>
    <rect x="268" y="84.9" width="6.600000000000023" height="2.2" fill="#22d3ee"/><rect x="272.4" y="76" width="2.2" height="11.099999999999994" fill="#22d3ee"/>
    <rect x="279" y="76" width="11" height="20" fill="#22d3ee"/>
    <rect x="290" y="76" width="11" height="20" fill="#22d3ee"/>
    <rect x="305.4" y="76" width="2.2" height="20" fill="#22d3ee"/>
    <rect x="312" y="76" width="11" height="20" fill="#22d3ee"/>
    <rect x="323" y="76" width="11" height="20" fill="#22d3ee"/>
    <rect x="338.4" y="84.9" width="6.600000000000023" height="2.2" fill="#22d3ee"/><rect x="338.4" y="84.9" width="2.2" height="11.099999999999994" fill="#22d3ee"/>
    <rect x="345" y="84.9" width="11" height="2.2" fill="#22d3ee"/>
    <rect x="356" y="84.9" width="11" height="2.2" fill="#22d3ee"/>
    <rect x="367" y="84.9" width="11" height="2.2" fill="#22d3ee"/>
    <rect x="378" y="84.9" width="11" height="2.2" fill="#22d3ee"/>
    <rect x="389" y="84.9" width="6.600000000000023" height="2.2" fill="#22d3ee"/><rect x="393.4" y="76" width="2.2" height="11.099999999999994" fill="#22d3ee"/>
    <rect x="400" y="76" width="11" height="20" fill="#22d3ee"/>
    <rect x="411" y="76" width="11" height="20" fill="#22d3ee"/>
    <rect x="426.4" y="84.9" width="6.600000000000023" height="2.2" fill="#22d3ee"/><rect x="426.4" y="84.9" width="2.2" height="11.099999999999994" fill="#22d3ee"/>
    <rect x="433" y="84.9" width="11" height="2.2" fill="#22d3ee"/>
    <rect x="444" y="84.9" width="11" height="2.2" fill="#22d3ee"/>
    <rect x="455" y="84.9" width="11" height="2.2" fill="#22d3ee"/>
    <rect x="466" y="76" width="11" height="20" fill="#22d3ee"/>
    <rect x="477" y="76" width="11" height="20" fill="#22d3ee"/>
    <rect x="488" y="84.9" width="6.600000000000023" height="2.2" fill="#22d3ee"/><rect x="492.4" y="84.9" width="2.2" height="11.099999999999994" fill="#22d3ee"/>
    <rect x="499" y="76" width="11" height="20" fill="#22d3ee"/>
    <rect x="510" y="76" width="11" height="20" fill="#22d3ee"/>
    <rect x="525.4" y="84.9" width="6.600000000000023" height="2.2" fill="#22d3ee"/><rect x="525.4" y="84.9" width="2.2" height="11.099999999999994" fill="#22d3ee"/>
    <rect x="532" y="84.9" width="11" height="2.2" fill="#22d3ee"/>
    <rect x="543" y="84.9" width="11" height="2.2" fill="#22d3ee"/>
    <rect x="554" y="76" width="11" height="20" fill="#22d3ee"/>
    <rect x="565" y="76" width="11" height="20" fill="#22d3ee"/>
    <rect x="576" y="84.9" width="6.600000000000023" height="2.2" fill="#22d3ee"/><rect x="580.4" y="84.9" width="2.2" height="11.099999999999994" fill="#22d3ee"/>
    <rect x="587" y="76" width="11" height="20" fill="#22d3ee"/>
    <rect x="598" y="76" width="11" height="20" fill="#22d3ee"/>
    <rect x="613.4" y="84.9" width="6.600000000000023" height="2.2" fill="#22d3ee"/><rect x="613.4" y="84.9" width="2.2" height="11.099999999999994" fill="#22d3ee"/>
    <rect x="620" y="84.9" width="11" height="2.2" fill="#22d3ee"/>
    <rect x="631" y="84.9" width="11" height="2.2" fill="#22d3ee"/>
    <rect x="642" y="84.9" width="11" height="2.2" fill="#22d3ee"/>
    <rect x="653" y="84.9" width="11" height="2.2" fill="#22d3ee"/>
    <rect x="664" y="84.9" width="6.600000000000023" height="2.2" fill="#22d3ee"/><rect x="668.4" y="76" width="2.2" height="11.099999999999994" fill="#22d3ee"/>
    <rect x="686" y="76" width="11" height="20" fill="#22d3ee"/>
    <rect x="697" y="76" width="11" height="20" fill="#22d3ee"/>
    <rect x="712.4" y="84.9" width="6.600000000000023" height="2.2" fill="#22d3ee"/><rect x="712.4" y="84.9" width="2.2" height="11.099999999999994" fill="#22d3ee"/>
    <rect x="719" y="84.9" width="11" height="2.2" fill="#22d3ee"/>
    <rect x="730" y="84.9" width="11" height="2.2" fill="#22d3ee"/>
    <rect x="741" y="84.9" width="11" height="2.2" fill="#22d3ee"/>
    <rect x="752" y="84.9" width="11" height="2.2" fill="#22d3ee"/>
    <rect x="763" y="84.9" width="6.600000000000023" height="2.2" fill="#22d3ee"/><rect x="767.4" y="76" width="2.2" height="11.099999999999994" fill="#22d3ee"/>
    <rect x="48" y="96" width="11" height="20" fill="#22d3ee"/>
    <rect x="59" y="96" width="11" height="20" fill="#22d3ee"/>
    <rect x="74.4" y="96" width="2.2" height="20" fill="#22d3ee"/>
    <rect x="92" y="96" width="11" height="20" fill="#22d3ee"/>
    <rect x="103" y="104.9" width="6.599999999999994" height="2.2" fill="#22d3ee"/><rect x="107.4" y="104.9" width="2.2" height="11.099999999999994" fill="#22d3ee"/>
    <rect x="125" y="96" width="11" height="20" fill="#22d3ee"/>
    <rect x="136" y="96" width="11" height="20" fill="#22d3ee"/>
    <rect x="151.4" y="96" width="2.2" height="20" fill="#22d3ee"/>
    <rect x="158" y="96" width="11" height="20" fill="#22d3ee"/>
    <rect x="169" y="96" width="11" height="20" fill="#22d3ee"/>
    <rect x="184.4" y="96" width="2.2" height="20" fill="#22d3ee"/>
    <rect x="191" y="96" width="11" height="20" fill="#22d3ee"/>
    <rect x="202" y="96" width="11" height="20" fill="#22d3ee"/>
    <rect x="213" y="96" width="11" height="20" fill="#22d3ee"/>
    <rect x="224" y="96" width="11" height="20" fill="#22d3ee"/>
    <rect x="235" y="96" width="11" height="20" fill="#22d3ee"/>
    <rect x="250.4" y="104.9" width="6.599999999999994" height="2.2" fill="#22d3ee"/><rect x="250.4" y="104.9" width="2.2" height="11.099999999999994" fill="#22d3ee"/>
    <rect x="257" y="104.9" width="6.600000000000023" height="2.2" fill="#22d3ee"/><rect x="261.4" y="96" width="2.2" height="11.099999999999994" fill="#22d3ee"/>
    <rect x="279" y="96" width="11" height="20" fill="#22d3ee"/>
    <rect x="290" y="96" width="11" height="20" fill="#22d3ee"/>
    <rect x="305.4" y="96" width="2.2" height="20" fill="#22d3ee"/>
    <rect x="312" y="96" width="11" height="20" fill="#22d3ee"/>
    <rect x="323" y="96" width="11" height="20" fill="#22d3ee"/>
    <rect x="334" y="96" width="11" height="20" fill="#22d3ee"/>
    <rect x="345" y="96" width="11" height="20" fill="#22d3ee"/>
    <rect x="356" y="96" width="11" height="20" fill="#22d3ee"/>
    <rect x="367" y="104.9" width="6.600000000000023" height="2.2" fill="#22d3ee"/><rect x="371.4" y="104.9" width="2.2" height="11.099999999999994" fill="#22d3ee"/>
    <rect x="400" y="96" width="11" height="20" fill="#22d3ee"/>
    <rect x="411" y="96" width="11" height="20" fill="#22d3ee"/>
    <rect x="426.4" y="96" width="2.2" height="20" fill="#22d3ee"/>
    <rect x="466" y="96" width="11" height="20" fill="#22d3ee"/>
    <rect x="477" y="96" width="11" height="20" fill="#22d3ee"/>
    <rect x="492.4" y="96" width="2.2" height="20" fill="#22d3ee"/>
    <rect x="499" y="96" width="11" height="20" fill="#22d3ee"/>
    <rect x="510" y="96" width="11" height="20" fill="#22d3ee"/>
    <rect x="521" y="96" width="11" height="20" fill="#22d3ee"/>
    <rect x="532" y="96" width="11" height="20" fill="#22d3ee"/>
    <rect x="543" y="96" width="11" height="20" fill="#22d3ee"/>
    <rect x="554" y="96" width="11" height="20" fill="#22d3ee"/>
    <rect x="569.4" y="104.9" width="6.600000000000023" height="2.2" fill="#22d3ee"/><rect x="569.4" y="104.9" width="2.2" height="11.099999999999994" fill="#22d3ee"/>
    <rect x="576" y="104.9" width="6.600000000000023" height="2.2" fill="#22d3ee"/><rect x="580.4" y="96" width="2.2" height="11.099999999999994" fill="#22d3ee"/>
    <rect x="587" y="96" width="11" height="20" fill="#22d3ee"/>
    <rect x="598" y="96" width="11" height="20" fill="#22d3ee"/>
    <rect x="613.4" y="96" width="2.2" height="20" fill="#22d3ee"/>
    <rect x="642" y="96" width="11" height="20" fill="#22d3ee"/>
    <rect x="653" y="96" width="11" height="20" fill="#22d3ee"/>
    <rect x="664" y="96" width="11" height="20" fill="#22d3ee"/>
    <rect x="675" y="104.9" width="6.600000000000023" height="2.2" fill="#22d3ee"/><rect x="679.4" y="104.9" width="2.2" height="11.099999999999994" fill="#22d3ee"/>
    <rect x="686" y="96" width="11" height="20" fill="#22d3ee"/>
    <rect x="697" y="96" width="11" height="20" fill="#22d3ee"/>
    <rect x="708" y="96" width="11" height="20" fill="#22d3ee"/>
    <rect x="719" y="96" width="11" height="20" fill="#22d3ee"/>
    <rect x="730" y="96" width="11" height="20" fill="#22d3ee"/>
    <rect x="741" y="104.9" width="6.600000000000023" height="2.2" fill="#22d3ee"/><rect x="745.4" y="104.9" width="2.2" height="11.099999999999994" fill="#22d3ee"/>
    <rect x="48" y="116" width="11" height="20" fill="#22d3ee"/>
    <rect x="59" y="116" width="11" height="20" fill="#22d3ee"/>
    <rect x="74.4" y="116" width="2.2" height="20" fill="#22d3ee"/>
    <rect x="81" y="116" width="11" height="20" fill="#22d3ee"/>
    <rect x="92" y="116" width="11" height="20" fill="#22d3ee"/>
    <rect x="103" y="116" width="11" height="20" fill="#22d3ee"/>
    <rect x="114" y="124.9" width="6.599999999999994" height="2.2" fill="#22d3ee"/><rect x="118.4" y="124.9" width="2.2" height="11.099999999999994" fill="#22d3ee"/>
    <rect x="125" y="116" width="11" height="20" fill="#22d3ee"/>
    <rect x="136" y="116" width="11" height="20" fill="#22d3ee"/>
    <rect x="151.4" y="116" width="2.2" height="20" fill="#22d3ee"/>
    <rect x="158" y="116" width="11" height="20" fill="#22d3ee"/>
    <rect x="169" y="116" width="11" height="20" fill="#22d3ee"/>
    <rect x="184.4" y="116" width="2.2" height="20" fill="#22d3ee"/>
    <rect x="191" y="116" width="11" height="20" fill="#22d3ee"/>
    <rect x="202" y="116" width="11" height="20" fill="#22d3ee"/>
    <rect x="217.4" y="124.9" width="6.599999999999994" height="2.2" fill="#22d3ee"/><rect x="217.4" y="124.9" width="2.2" height="11.099999999999994" fill="#22d3ee"/>
    <rect x="224" y="124.9" width="11" height="2.2" fill="#22d3ee"/>
    <rect x="235" y="116" width="11" height="20" fill="#22d3ee"/>
    <rect x="246" y="116" width="11" height="20" fill="#22d3ee"/>
    <rect x="257" y="124.9" width="6.600000000000023" height="2.2" fill="#22d3ee"/><rect x="261.4" y="124.9" width="2.2" height="11.099999999999994" fill="#22d3ee"/>
    <rect x="279" y="116" width="11" height="20" fill="#22d3ee"/>
    <rect x="290" y="116" width="11" height="20" fill="#22d3ee"/>
    <rect x="305.4" y="116" width="2.2" height="20" fill="#22d3ee"/>
    <rect x="312" y="116" width="11" height="20" fill="#22d3ee"/>
    <rect x="323" y="116" width="11" height="20" fill="#22d3ee"/>
    <rect x="338.4" y="124.9" width="6.600000000000023" height="2.2" fill="#22d3ee"/><rect x="338.4" y="124.9" width="2.2" height="11.099999999999994" fill="#22d3ee"/>
    <rect x="345" y="124.9" width="11" height="2.2" fill="#22d3ee"/>
    <rect x="356" y="124.9" width="11" height="2.2" fill="#22d3ee"/>
    <rect x="367" y="124.9" width="6.600000000000023" height="2.2" fill="#22d3ee"/><rect x="371.4" y="116" width="2.2" height="11.099999999999994" fill="#22d3ee"/>
    <rect x="400" y="116" width="11" height="20" fill="#22d3ee"/>
    <rect x="411" y="116" width="11" height="20" fill="#22d3ee"/>
    <rect x="426.4" y="116" width="2.2" height="20" fill="#22d3ee"/>
    <rect x="466" y="116" width="11" height="20" fill="#22d3ee"/>
    <rect x="477" y="116" width="11" height="20" fill="#22d3ee"/>
    <rect x="492.4" y="116" width="2.2" height="20" fill="#22d3ee"/>
    <rect x="499" y="116" width="11" height="20" fill="#22d3ee"/>
    <rect x="510" y="116" width="11" height="20" fill="#22d3ee"/>
    <rect x="525.4" y="124.9" width="6.600000000000023" height="2.2" fill="#22d3ee"/><rect x="525.4" y="124.9" width="2.2" height="11.099999999999994" fill="#22d3ee"/>
    <rect x="532" y="124.9" width="11" height="2.2" fill="#22d3ee"/>
    <rect x="543" y="124.9" width="11" height="2.2" fill="#22d3ee"/>
    <rect x="554" y="116" width="11" height="20" fill="#22d3ee"/>
    <rect x="565" y="116" width="11" height="20" fill="#22d3ee"/>
    <rect x="576" y="124.9" width="6.600000000000023" height="2.2" fill="#22d3ee"/><rect x="580.4" y="124.9" width="2.2" height="11.099999999999994" fill="#22d3ee"/>
    <rect x="587" y="116" width="11" height="20" fill="#22d3ee"/>
    <rect x="598" y="116" width="11" height="20" fill="#22d3ee"/>
    <rect x="613.4" y="116" width="2.2" height="20" fill="#22d3ee"/>
    <rect x="653" y="116" width="11" height="20" fill="#22d3ee"/>
    <rect x="664" y="116" width="11" height="20" fill="#22d3ee"/>
    <rect x="679.4" y="116" width="2.2" height="20" fill="#22d3ee"/>
    <rect x="686" y="116" width="11" height="20" fill="#22d3ee"/>
    <rect x="697" y="116" width="11" height="20" fill="#22d3ee"/>
    <rect x="712.4" y="124.9" width="6.600000000000023" height="2.2" fill="#22d3ee"/><rect x="712.4" y="124.9" width="2.2" height="11.099999999999994" fill="#22d3ee"/>
    <rect x="719" y="124.9" width="11" height="2.2" fill="#22d3ee"/>
    <rect x="730" y="124.9" width="11" height="2.2" fill="#22d3ee"/>
    <rect x="741" y="124.9" width="6.600000000000023" height="2.2" fill="#22d3ee"/><rect x="745.4" y="116" width="2.2" height="11.099999999999994" fill="#22d3ee"/>
    <rect x="52.4" y="144.9" width="6.600000000000001" height="2.2" fill="#22d3ee"/><rect x="52.4" y="136" width="2.2" height="11.099999999999994" fill="#22d3ee"/>
    <rect x="59" y="136" width="11" height="20" fill="#22d3ee"/>
    <rect x="70" y="136" width="11" height="20" fill="#22d3ee"/>
    <rect x="81" y="136" width="11" height="20" fill="#22d3ee"/>
    <rect x="96.4" y="144.9" width="6.599999999999994" height="2.2" fill="#22d3ee"/><rect x="96.4" y="144.9" width="2.2" height="11.099999999999994" fill="#22d3ee"/>
    <rect x="103" y="136" width="11" height="20" fill="#22d3ee"/>
    <rect x="114" y="136" width="11" height="20" fill="#22d3ee"/>
    <rect x="125" y="136" width="11" height="20" fill="#22d3ee"/>
    <rect x="140.4" y="144.9" width="6.599999999999994" height="2.2" fill="#22d3ee"/><rect x="140.4" y="144.9" width="2.2" height="11.099999999999994" fill="#22d3ee"/>
    <rect x="147" y="144.9" width="6.599999999999994" height="2.2" fill="#22d3ee"/><rect x="151.4" y="136" width="2.2" height="11.099999999999994" fill="#22d3ee"/>
    <rect x="158" y="136" width="11" height="20" fill="#22d3ee"/>
    <rect x="169" y="136" width="11" height="20" fill="#22d3ee"/>
    <rect x="184.4" y="136" width="2.2" height="20" fill="#22d3ee"/>
    <rect x="191" y="136" width="11" height="20" fill="#22d3ee"/>
    <rect x="202" y="136" width="11" height="20" fill="#22d3ee"/>
    <rect x="217.4" y="136" width="2.2" height="20" fill="#22d3ee"/>
    <rect x="246" y="136" width="11" height="20" fill="#22d3ee"/>
    <rect x="257" y="136" width="11" height="20" fill="#22d3ee"/>
    <rect x="268" y="144.9" width="6.600000000000023" height="2.2" fill="#22d3ee"/><rect x="272.4" y="144.9" width="2.2" height="11.099999999999994" fill="#22d3ee"/>
    <rect x="279" y="136" width="11" height="20" fill="#22d3ee"/>
    <rect x="290" y="136" width="11" height="20" fill="#22d3ee"/>
    <rect x="305.4" y="136" width="2.2" height="20" fill="#22d3ee"/>
    <rect x="312" y="136" width="11" height="20" fill="#22d3ee"/>
    <rect x="323" y="136" width="11" height="20" fill="#22d3ee"/>
    <rect x="338.4" y="136" width="2.2" height="20" fill="#22d3ee"/>
    <rect x="404.4" y="144.9" width="6.600000000000023" height="2.2" fill="#22d3ee"/><rect x="404.4" y="136" width="2.2" height="11.099999999999994" fill="#22d3ee"/>
    <rect x="411" y="136" width="11" height="20" fill="#22d3ee"/>
    <rect x="422" y="136" width="11" height="20" fill="#22d3ee"/>
    <rect x="433" y="136" width="11" height="20" fill="#22d3ee"/>
    <rect x="444" y="136" width="11" height="20" fill="#22d3ee"/>
    <rect x="455" y="136" width="11" height="20" fill="#22d3ee"/>
    <rect x="466" y="136" width="11" height="20" fill="#22d3ee"/>
    <rect x="481.4" y="144.9" width="6.600000000000023" height="2.2" fill="#22d3ee"/><rect x="481.4" y="144.9" width="2.2" height="11.099999999999994" fill="#22d3ee"/>
    <rect x="488" y="144.9" width="6.600000000000023" height="2.2" fill="#22d3ee"/><rect x="492.4" y="136" width="2.2" height="11.099999999999994" fill="#22d3ee"/>
    <rect x="499" y="136" width="11" height="20" fill="#22d3ee"/>
    <rect x="510" y="136" width="11" height="20" fill="#22d3ee"/>
    <rect x="525.4" y="136" width="2.2" height="20" fill="#22d3ee"/>
    <rect x="554" y="136" width="11" height="20" fill="#22d3ee"/>
    <rect x="565" y="136" width="11" height="20" fill="#22d3ee"/>
    <rect x="580.4" y="136" width="2.2" height="20" fill="#22d3ee"/>
    <rect x="591.4" y="144.9" width="6.600000000000023" height="2.2" fill="#22d3ee"/><rect x="591.4" y="136" width="2.2" height="11.099999999999994" fill="#22d3ee"/>
    <rect x="598" y="136" width="11" height="20" fill="#22d3ee"/>
    <rect x="609" y="136" width="11" height="20" fill="#22d3ee"/>
    <rect x="620" y="136" width="11" height="20" fill="#22d3ee"/>
    <rect x="631" y="136" width="11" height="20" fill="#22d3ee"/>
    <rect x="642" y="136" width="11" height="20" fill="#22d3ee"/>
    <rect x="653" y="136" width="11" height="20" fill="#22d3ee"/>
    <rect x="668.4" y="144.9" width="6.600000000000023" height="2.2" fill="#22d3ee"/><rect x="668.4" y="144.9" width="2.2" height="11.099999999999994" fill="#22d3ee"/>
    <rect x="675" y="144.9" width="6.600000000000023" height="2.2" fill="#22d3ee"/><rect x="679.4" y="136" width="2.2" height="11.099999999999994" fill="#22d3ee"/>
    <rect x="686" y="136" width="11" height="20" fill="#22d3ee"/>
    <rect x="697" y="136" width="11" height="20" fill="#22d3ee"/>
    <rect x="708" y="136" width="11" height="20" fill="#22d3ee"/>
    <rect x="719" y="136" width="11" height="20" fill="#22d3ee"/>
    <rect x="730" y="136" width="11" height="20" fill="#22d3ee"/>
    <rect x="741" y="136" width="11" height="20" fill="#22d3ee"/>
    <rect x="752" y="136" width="11" height="20" fill="#22d3ee"/>
    <rect x="763" y="144.9" width="6.600000000000023" height="2.2" fill="#22d3ee"/><rect x="767.4" y="144.9" width="2.2" height="11.099999999999994" fill="#22d3ee"/>
    <rect x="63.4" y="164.9" width="6.600000000000001" height="2.2" fill="#22d3ee"/><rect x="63.4" y="156" width="2.2" height="11.099999999999994" fill="#22d3ee"/>
    <rect x="70" y="164.9" width="11" height="2.2" fill="#22d3ee"/>
    <rect x="81" y="164.9" width="11" height="2.2" fill="#22d3ee"/>
    <rect x="92" y="164.9" width="6.599999999999994" height="2.2" fill="#22d3ee"/><rect x="96.4" y="156" width="2.2" height="11.099999999999994" fill="#22d3ee"/>
    <rect x="107.4" y="164.9" width="6.599999999999994" height="2.2" fill="#22d3ee"/><rect x="107.4" y="156" width="2.2" height="11.099999999999994" fill="#22d3ee"/>
    <rect x="114" y="164.9" width="11" height="2.2" fill="#22d3ee"/>
    <rect x="125" y="164.9" width="11" height="2.2" fill="#22d3ee"/>
    <rect x="136" y="164.9" width="6.599999999999994" height="2.2" fill="#22d3ee"/><rect x="140.4" y="156" width="2.2" height="11.099999999999994" fill="#22d3ee"/>
    <rect x="162.4" y="164.9" width="6.599999999999994" height="2.2" fill="#22d3ee"/><rect x="162.4" y="156" width="2.2" height="11.099999999999994" fill="#22d3ee"/>
    <rect x="169" y="164.9" width="11" height="2.2" fill="#22d3ee"/>
    <rect x="180" y="164.9" width="6.599999999999994" height="2.2" fill="#22d3ee"/><rect x="184.4" y="156" width="2.2" height="11.099999999999994" fill="#22d3ee"/>
    <rect x="195.4" y="164.9" width="6.599999999999994" height="2.2" fill="#22d3ee"/><rect x="195.4" y="156" width="2.2" height="11.099999999999994" fill="#22d3ee"/>
    <rect x="202" y="164.9" width="11" height="2.2" fill="#22d3ee"/>
    <rect x="213" y="164.9" width="6.599999999999994" height="2.2" fill="#22d3ee"/><rect x="217.4" y="156" width="2.2" height="11.099999999999994" fill="#22d3ee"/>
    <rect x="250.4" y="164.9" width="6.599999999999994" height="2.2" fill="#22d3ee"/><rect x="250.4" y="156" width="2.2" height="11.099999999999994" fill="#22d3ee"/>
    <rect x="257" y="164.9" width="11" height="2.2" fill="#22d3ee"/>
    <rect x="268" y="164.9" width="6.600000000000023" height="2.2" fill="#22d3ee"/><rect x="272.4" y="156" width="2.2" height="11.099999999999994" fill="#22d3ee"/>
    <rect x="283.4" y="164.9" width="6.600000000000023" height="2.2" fill="#22d3ee"/><rect x="283.4" y="156" width="2.2" height="11.099999999999994" fill="#22d3ee"/>
    <rect x="290" y="164.9" width="11" height="2.2" fill="#22d3ee"/>
    <rect x="301" y="164.9" width="6.600000000000023" height="2.2" fill="#22d3ee"/><rect x="305.4" y="156" width="2.2" height="11.099999999999994" fill="#22d3ee"/>
    <rect x="316.4" y="164.9" width="6.600000000000023" height="2.2" fill="#22d3ee"/><rect x="316.4" y="156" width="2.2" height="11.099999999999994" fill="#22d3ee"/>
    <rect x="323" y="164.9" width="11" height="2.2" fill="#22d3ee"/>
    <rect x="334" y="164.9" width="6.600000000000023" height="2.2" fill="#22d3ee"/><rect x="338.4" y="156" width="2.2" height="11.099999999999994" fill="#22d3ee"/>
    <rect x="415.4" y="164.9" width="6.600000000000023" height="2.2" fill="#22d3ee"/><rect x="415.4" y="156" width="2.2" height="11.099999999999994" fill="#22d3ee"/>
    <rect x="422" y="164.9" width="11" height="2.2" fill="#22d3ee"/>
    <rect x="433" y="164.9" width="11" height="2.2" fill="#22d3ee"/>
    <rect x="444" y="164.9" width="11" height="2.2" fill="#22d3ee"/>
    <rect x="455" y="164.9" width="11" height="2.2" fill="#22d3ee"/>
    <rect x="466" y="164.9" width="11" height="2.2" fill="#22d3ee"/>
    <rect x="477" y="164.9" width="6.600000000000023" height="2.2" fill="#22d3ee"/><rect x="481.4" y="156" width="2.2" height="11.099999999999994" fill="#22d3ee"/>
    <rect x="503.4" y="164.9" width="6.600000000000023" height="2.2" fill="#22d3ee"/><rect x="503.4" y="156" width="2.2" height="11.099999999999994" fill="#22d3ee"/>
    <rect x="510" y="164.9" width="11" height="2.2" fill="#22d3ee"/>
    <rect x="521" y="164.9" width="6.600000000000023" height="2.2" fill="#22d3ee"/><rect x="525.4" y="156" width="2.2" height="11.099999999999994" fill="#22d3ee"/>
    <rect x="558.4" y="164.9" width="6.600000000000023" height="2.2" fill="#22d3ee"/><rect x="558.4" y="156" width="2.2" height="11.099999999999994" fill="#22d3ee"/>
    <rect x="565" y="164.9" width="11" height="2.2" fill="#22d3ee"/>
    <rect x="576" y="164.9" width="6.600000000000023" height="2.2" fill="#22d3ee"/><rect x="580.4" y="156" width="2.2" height="11.099999999999994" fill="#22d3ee"/>
    <rect x="602.4" y="164.9" width="6.600000000000023" height="2.2" fill="#22d3ee"/><rect x="602.4" y="156" width="2.2" height="11.099999999999994" fill="#22d3ee"/>
    <rect x="609" y="164.9" width="11" height="2.2" fill="#22d3ee"/>
    <rect x="620" y="164.9" width="11" height="2.2" fill="#22d3ee"/>
    <rect x="631" y="164.9" width="11" height="2.2" fill="#22d3ee"/>
    <rect x="642" y="164.9" width="11" height="2.2" fill="#22d3ee"/>
    <rect x="653" y="164.9" width="11" height="2.2" fill="#22d3ee"/>
    <rect x="664" y="164.9" width="6.600000000000023" height="2.2" fill="#22d3ee"/><rect x="668.4" y="156" width="2.2" height="11.099999999999994" fill="#22d3ee"/>
    <rect x="690.4" y="164.9" width="6.600000000000023" height="2.2" fill="#22d3ee"/><rect x="690.4" y="156" width="2.2" height="11.099999999999994" fill="#22d3ee"/>
    <rect x="697" y="164.9" width="11" height="2.2" fill="#22d3ee"/>
    <rect x="708" y="164.9" width="11" height="2.2" fill="#22d3ee"/>
    <rect x="719" y="164.9" width="11" height="2.2" fill="#22d3ee"/>
    <rect x="730" y="164.9" width="11" height="2.2" fill="#22d3ee"/>
    <rect x="741" y="164.9" width="11" height="2.2" fill="#22d3ee"/>
    <rect x="752" y="164.9" width="11" height="2.2" fill="#22d3ee"/>
    <rect x="763" y="164.9" width="6.600000000000023" height="2.2" fill="#22d3ee"/><rect x="767.4" y="156" width="2.2" height="11.099999999999994" fill="#22d3ee"/>
  </g>
  <text x="411" y="220" font-family="ui-monospace, SFMono-Regular, Menlo, Consolas, monospace" font-size="15" fill="#e2e8f0" text-anchor="middle">Scaffold an LLM Wiki, ready to run</text>
</svg>
